<?xml version="1.0" encoding="utf-8"?>
<!-- Generator: Adobe Illustrator 24.0.0, SVG Export Plug-In . SVG Version: 6.00 Build 0)  -->
<svg version="1.1" xmlns="http://www.w3.org/2000/svg" xmlns:xlink="http://www.w3.org/1999/xlink" x="0px" y="0px"
	 viewBox="0 0 25.9 10.1" style="enable-background:new 0 0 25.9 10.1;" xml:space="preserve">
<style type="text/css">
	.st0{fill:#5fadbf;}
	.st1{display:none;}
	.st2{fill:#F39200;}
</style>
<g id="Layer_3">
	<path class="st0" d="M25.9,10.1L20,4.8c-5.3-4.7-5.4-4.8-7-4.8h0v0c-1.6,0-1.7,0.1-7,4.8L0,10.1h7.9h5h0h5H25.9z M12.9,3v4.1h-5
		C12.3,3.1,12.5,3,12.9,3z M18,7.1h-5V3C13.4,3,13.6,3.1,18,7.1z"/>
	<path class="st0" d="M21.4,10.1l-8.4,0l0-0.9h0l0,0.9l-8.4,0l3.4-3h0c4.4-3.9,4.6-4.1,5-4.1v2.9h0V3c0.5,0,0.6,0.1,5,4.1h0
		L21.4,10.1z"/>
</g>
<g id="Layer_1" class="st1">
</g>
<g id="Layer_2">
	<path class="st2" d="M5.3,2.3"/>
	<path class="st2" d="M22.9,8.5"/>
</g>
</svg>
