<?xml version="1.0" encoding="utf-8"?>
<!-- Generator: Adobe Illustrator 24.0.0, SVG Export Plug-In . SVG Version: 6.00 Build 0)  -->
<svg version="1.1" xmlns="http://www.w3.org/2000/svg" xmlns:xlink="http://www.w3.org/1999/xlink" x="0px" y="0px"
	 viewBox="0 0 25.9 10.1" style="enable-background:new 0 0 25.9 10.1;" xml:space="preserve" preserveAspectRatio="none">
<style type="text/css">
	.st0{fill:#FFFFFF;}
	.st1{fill:#18567a;}
	.st2{display:none;}
	.st3{fill:#F39200;}
</style>
<g id="Layer_3">
	<path class="st0" d="M18,0h-5h0h-5H0l5.9,5.2c5.3,4.7,5.4,4.8,7,4.8v0h0c1.6,0,1.7-0.1,7-4.8L25.9,0H18z M7.9,3h5v4.1
		C12.5,7.1,12.3,6.9,7.9,3z M12.9,7.1V3h5C13.6,6.9,13.4,7.1,12.9,7.1z"/>
	<path class="st1" d="M21.4,0l-8.4,0l0,0.9h0l0-0.9L4.5,0l3.4,3h0c4.4,3.9,4.6,4.1,5,4.1V4.2h0v2.9c0.5,0,0.6-0.1,5-4.1h0L21.4,0z"
		/>
</g>
<g id="Layer_1" class="st2">
</g>
<g id="Layer_2">
	<path class="st3" d="M5.3,2.3"/>
	<path class="st3" d="M22.9,8.5"/>
</g>
</svg>
